<svg width="116" height="26" viewBox="0 0 116 26" fill="none" xmlns="http://www.w3.org/2000/svg">
<path d="M26.1094 3.42969H37.125V6.125H29.0859V10.2734H36.5742V12.9688H29.0859V17.2461H37.125V20H26.1094V3.42969ZM42.668 14.1875L38.6953 8.28125H42.1758L44.6016 12.1953L47.0273 8.28125H50.4492L46.4766 14.0938L50.4492 20H46.9688L44.543 16.0859L42.1172 20H38.6953L42.668 14.1875ZM56.7773 20.2344C55.9023 20.2344 55.1133 20.0938 54.4102 19.8125C53.7148 19.5234 53.125 19.1172 52.6406 18.5938C52.1641 18.0703 51.7969 17.4336 51.5391 16.6836C51.2891 15.9258 51.1641 15.0859 51.1641 14.1641C51.1641 13.2266 51.293 12.3789 51.5508 11.6211C51.8086 10.8633 52.1797 10.2227 52.6641 9.69922C53.1484 9.16797 53.7422 8.76172 54.4453 8.48047C55.1484 8.19141 55.9375 8.04688 56.8125 8.04688C58.0312 8.04688 59.0703 8.32812 59.9297 8.89062C60.7969 9.44531 61.4492 10.3047 61.8867 11.4688L59.168 12.5234C59.0039 11.8984 58.7188 11.4141 58.3125 11.0703C57.9141 10.7266 57.418 10.5547 56.8242 10.5547C56.4492 10.5547 56.0977 10.6289 55.7695 10.7773C55.4414 10.9258 55.1562 11.1484 54.9141 11.4453C54.6719 11.7344 54.4805 12.1055 54.3398 12.5586C54.207 13.0039 54.1406 13.5234 54.1406 14.1172C54.1406 15.2969 54.3984 16.1953 54.9141 16.8125C55.4297 17.4219 56.1055 17.7266 56.9414 17.7266C57.5039 17.7266 57.9961 17.5508 58.418 17.1992C58.8398 16.8477 59.1289 16.375 59.2852 15.7812L61.9219 16.7656C61.5391 17.8828 60.9141 18.7422 60.0469 19.3438C59.1875 19.9375 58.0977 20.2344 56.7773 20.2344ZM63.0117 16.6133C63.0117 15.4883 63.4141 14.6094 64.2188 13.9766C65.0312 13.3359 66.1836 13.0156 67.6758 13.0156H70.7227C70.7227 12.2109 70.5078 11.5977 70.0781 11.1758C69.6484 10.7539 69.0898 10.543 68.4023 10.543C67.8242 10.543 67.2969 10.6914 66.8203 10.9883C66.3516 11.2773 65.9648 11.6797 65.6602 12.1953L63.4688 10.6133C64.1172 9.73828 64.8516 9.09375 65.6719 8.67969C66.4922 8.25781 67.4336 8.04688 68.4961 8.04688C69.2773 8.04688 69.9766 8.16016 70.5938 8.38672C71.2188 8.61328 71.7383 8.93359 72.1523 9.34766C72.5742 9.76172 72.8945 10.2656 73.1133 10.8594C73.3398 11.4453 73.4531 12.0977 73.4531 12.8164V20H71.0977L70.9102 18.3242C70.4648 18.9492 69.9258 19.4258 69.293 19.7539C68.6602 20.0742 67.9258 20.2344 67.0898 20.2344C65.8164 20.2344 64.8164 19.9102 64.0898 19.2617C63.3711 18.6133 63.0117 17.7305 63.0117 16.6133ZM67.6758 17.8203C68.0898 17.8203 68.4805 17.7461 68.8477 17.5977C69.2227 17.4492 69.5469 17.25 69.8203 17C70.1016 16.75 70.3203 16.4609 70.4766 16.1328C70.6406 15.7969 70.7227 15.4453 70.7227 15.0781H67.8867C67.2383 15.0781 66.75 15.2109 66.4219 15.4766C66.1016 15.7344 65.9414 16.0703 65.9414 16.4844C65.9414 16.8828 66.0898 17.207 66.3867 17.457C66.6836 17.6992 67.1133 17.8203 67.6758 17.8203ZM76.5 20V3.42969H79.3594V20H76.5ZM84.082 6.42969C83.6367 6.42969 83.2539 6.27344 82.9336 5.96094C82.6211 5.64063 82.4648 5.25781 82.4648 4.8125C82.4648 4.375 82.6211 3.99609 82.9336 3.67578C83.2539 3.35547 83.6367 3.19531 84.082 3.19531C84.5273 3.19531 84.9062 3.35547 85.2188 3.67578C85.5391 3.99609 85.6992 4.375 85.6992 4.8125C85.6992 5.25781 85.5391 5.64063 85.2188 5.96094C84.9062 6.27344 84.5273 6.42969 84.082 6.42969ZM82.6406 8.28125H85.5V20H82.6406V8.28125ZM96.4453 19.9531V18.6055C96.0469 19.0977 95.5508 19.4531 94.957 19.6719C94.3711 19.8906 93.7656 20 93.1406 20C92.3359 20 91.6133 19.8516 90.9727 19.5547C90.3398 19.25 89.8047 18.8359 89.3672 18.3125C88.9297 17.7812 88.5938 17.1484 88.3594 16.4141C88.1328 15.6797 88.0195 14.8828 88.0195 14.0234C88.0195 13.1719 88.1328 12.3789 88.3594 11.6445C88.5938 10.9102 88.9258 10.2812 89.3555 9.75781C89.793 9.22656 90.3281 8.80859 90.9609 8.50391C91.5938 8.19922 92.3047 8.04688 93.0938 8.04688C93.7031 8.04688 94.3125 8.16016 94.9219 8.38672C95.5391 8.60547 96.0469 8.96484 96.4453 9.46484V8.28125H99.3047L99.293 19.9531C99.293 20.7422 99.168 21.457 98.918 22.0977C98.6758 22.7383 98.3203 23.2773 97.8516 23.7148C97.3828 24.1523 96.8047 24.4883 96.1172 24.7227C95.4375 24.9648 94.6641 25.0859 93.7969 25.0859C93.1484 25.0859 92.5586 25.0195 92.0273 24.8867C91.4961 24.7617 91.0195 24.5859 90.5977 24.3594C90.1758 24.1406 89.7969 23.875 89.4609 23.5625C89.1328 23.2578 88.8398 22.9258 88.582 22.5664L90.7734 20.9844C90.8906 21.1875 91.0391 21.3867 91.2188 21.582C91.4062 21.7773 91.6289 21.9492 91.8867 22.0977C92.1445 22.2461 92.4375 22.3633 92.7656 22.4492C93.0938 22.543 93.4531 22.5898 93.8438 22.5898C94.6641 22.5898 95.3008 22.375 95.7539 21.9453C96.2148 21.5234 96.4453 20.8594 96.4453 19.9531ZM93.8555 17.4922C94.3477 17.4922 94.7734 17.4062 95.1328 17.2344C95.4922 17.0547 95.7852 16.8086 96.0117 16.4961C96.2383 16.1836 96.4062 15.8164 96.5156 15.3945C96.6328 14.9727 96.6914 14.5156 96.6914 14.0234C96.6914 13.5391 96.6328 13.0859 96.5156 12.6641C96.4062 12.2344 96.2383 11.8672 96.0117 11.5625C95.7852 11.25 95.4922 11.0039 95.1328 10.8242C94.7734 10.6445 94.3477 10.5547 93.8555 10.5547C93.3633 10.5547 92.9375 10.6484 92.5781 10.8359C92.2188 11.0156 91.9219 11.2617 91.6875 11.5742C91.4531 11.8789 91.2773 12.2461 91.1602 12.6758C91.0508 13.0977 90.9961 13.5469 90.9961 14.0234C90.9961 14.5078 91.0508 14.9648 91.1602 15.3945C91.2773 15.8164 91.4531 16.1836 91.6875 16.4961C91.9219 16.8008 92.2188 17.043 92.5781 17.2227C92.9375 17.4023 93.3633 17.4922 93.8555 17.4922ZM104.027 6.42969C103.582 6.42969 103.199 6.27344 102.879 5.96094C102.566 5.64063 102.41 5.25781 102.41 4.8125C102.41 4.375 102.566 3.99609 102.879 3.67578C103.199 3.35547 103.582 3.19531 104.027 3.19531C104.473 3.19531 104.852 3.35547 105.164 3.67578C105.484 3.99609 105.645 4.375 105.645 4.8125C105.645 5.25781 105.484 5.64063 105.164 5.96094C104.852 6.27344 104.473 6.42969 104.027 6.42969ZM102.586 8.28125H105.445V20H102.586V8.28125ZM112.945 20.2344C111.797 20.2344 110.895 19.9219 110.238 19.2969C109.59 18.6719 109.266 17.8281 109.266 16.7656V10.625H107.379V8.28125H109.312V3.44141H112.102V8.28125H115.055V10.625H112.102V16.2617C112.102 16.8242 112.227 17.207 112.477 17.4102C112.734 17.6133 113.051 17.7148 113.426 17.7148C113.723 17.7148 114.02 17.668 114.316 17.5742C114.613 17.4805 114.859 17.3867 115.055 17.293V19.8828C114.836 19.9609 114.527 20.0391 114.129 20.1172C113.738 20.1953 113.344 20.2344 112.945 20.2344Z" fill="white"/>
<path d="M6.95 5.125C3.97876 6.14588 1.85 8.90049 1.85 12.1384C1.85 13.1642 2.06364 14.1415 2.45002 15.0304M12.05 5.125C15.0213 6.14588 17.15 8.90049 17.15 12.1384C17.15 13.0076 16.9966 13.8419 16.7147 14.6173M13.325 18.5802C12.1998 19.2129 10.8934 19.575 9.5 19.575C8.1066 19.575 6.80021 19.2129 5.675 18.5802M12.05 5.55C12.05 6.95832 10.9084 8.1 9.5 8.1C8.09164 8.1 6.95 6.95832 6.95 5.55C6.95 4.14168 8.09164 3 9.5 3C10.9084 3 12.05 4.14168 12.05 5.55ZM6.1 17.45C6.1 18.8583 4.95833 20 3.55 20C2.14167 20 1 18.8583 1 17.45C1 16.0417 2.14167 14.9 3.55 14.9C4.95833 14.9 6.1 16.0417 6.1 17.45ZM18 17.45C18 18.8583 16.8583 20 15.45 20C14.0417 20 12.9 18.8583 12.9 17.45C12.9 16.0417 14.0417 14.9 15.45 14.9C16.8583 14.9 18 16.0417 18 17.45Z" stroke="white" stroke-width="2"/>
</svg>
