<svg width="31" height="18" viewBox="0 0 31 18" fill="none" xmlns="http://www.w3.org/2000/svg">
<path d="M0 0H11.4951V2.81262H3.10611V7.14162H10.9203V9.95424H3.10611V14.4178H11.4951V17.2915H0V0Z" fill="white"/>
<path d="M17.2793 11.226L13.1337 5.06272H16.7657L19.297 9.14714L21.8284 5.06272H25.3992L21.2536 11.1282L25.3992 17.2915H21.7673L19.2359 13.2071L16.7045 17.2915H13.1337L17.2793 11.226Z" fill="white"/>
<path d="M29.1657 17.5361C28.6521 17.5361 28.2241 17.3567 27.8817 16.998C27.5393 16.6312 27.368 16.1991 27.368 15.7018C27.368 15.2045 27.5433 14.7805 27.8939 14.43C28.2444 14.0794 28.6684 13.9041 29.1657 13.9041C29.663 13.9041 30.091 14.0753 30.4497 14.4178C30.8166 14.7602 31 15.1882 31 15.7018C31 16.1991 30.8206 16.6312 30.4619 16.998C30.1114 17.3567 29.6793 17.5361 29.1657 17.5361Z" fill="white"/>
</svg>
